STARTFONT 2.1
FONT -Monotype-Times New Roman-Bold-I-Normal--10-100-75-75-P-55-iso8859-4
SIZE 10 75 75
FONTBOUNDINGBOX 12 13 -2 -3

STARTPROPERTIES 24
FOUNDRY "Monotype"
FAMILY_NAME "Times New Roman"
WEIGHT_NAME "Bold"
SLANT "I"
SETWIDTH_NAME "Normal"
ADD_STYLE_NAME ""
PIXEL_SIZE 10
POINT_SIZE 100
RESOLUTION_X 75
RESOLUTION_Y 75
SPACING "P"
AVERAGE_WIDTH 55
CHARSET_REGISTRY "iso8859"
CHARSET_ENCODING "4"
FACE_NAME "Times New Roman Bold Italic ISO Latin4"
_DEC_DEVICE_FONTNAMES "PS=timesnewroman-bit-lat4"
COPYRIGHT "Copyright (c) 1994 Monotype Typography Ltd."
CAP_HEIGHT 8
X_HEIGHT 5
WEIGHT 10
QUAD_WIDTH 5
DEFAULT_CHAR 160
FONT_DESCENT 3
FONT_ASCENT 10
ENDPROPERTIES

CHARS 191

STARTCHAR space
ENCODING 32
SWIDTH 250 0
DWIDTH 3 0
BBX 0 0 0 0
BITMAP
ENDCHAR

STARTCHAR exclam
ENCODING 33
SWIDTH 389 0
DWIDTH 4 0
BBX 4 7 0 0
BITMAP
30
30
60
60
00
C0
C0
ENDCHAR

STARTCHAR quotedbl
ENCODING 34
SWIDTH 555 0
DWIDTH 6 0
BBX 5 4 1 3
BITMAP
D8
D8
90
90
ENDCHAR

STARTCHAR numbersign
ENCODING 35
SWIDTH 500 0
DWIDTH 5 0
BBX 5 7 0 0
BITMAP
28
28
F8
50
F8
50
50
ENDCHAR

STARTCHAR dollar
ENCODING 36
SWIDTH 500 0
DWIDTH 5 0
BBX 5 9 0 -1
BITMAP
10
30
68
60
20
30
B0
60
40
ENDCHAR

STARTCHAR percent
ENCODING 37
SWIDTH 833 0
DWIDTH 8 0
BBX 7 7 1 0
BITMAP
42
A4
A8
54
2A
4A
84
ENDCHAR

STARTCHAR ampersand
ENCODING 38
SWIDTH 778 0
DWIDTH 8 0
BBX 8 7 0 0
BITMAP
1C
36
1C
7B
DA
DC
77
ENDCHAR

STARTCHAR quoteright
ENCODING 39
SWIDTH 333 0
DWIDTH 3 0
BBX 2 4 0 4
BITMAP
40
C0
40
80
ENDCHAR

STARTCHAR parenleft
ENCODING 40
SWIDTH 333 0
DWIDTH 3 0
BBX 5 9 0 -2
BITMAP
18
30
60
C0
C0
C0
C0
C0
60
ENDCHAR

STARTCHAR parenright
ENCODING 41
SWIDTH 333 0
DWIDTH 3 0
BBX 5 9 -2 -2
BITMAP
30
18
18
18
18
18
30
60
C0
ENDCHAR

STARTCHAR asterisk
ENCODING 42
SWIDTH 500 0
DWIDTH 5 0
BBX 3 4 1 3
BITMAP
40
E0
40
A0
ENDCHAR

STARTCHAR plus
ENCODING 43
SWIDTH 570 0
DWIDTH 6 0
BBX 5 5 0 0
BITMAP
20
20
F8
20
20
ENDCHAR

STARTCHAR comma
ENCODING 44
SWIDTH 250 0
DWIDTH 3 0
BBX 2 4 0 -2
BITMAP
40
C0
40
80
ENDCHAR

STARTCHAR minus
ENCODING 45
SWIDTH 606 0
DWIDTH 6 0
BBX 5 1 0 2
BITMAP
F8
ENDCHAR

STARTCHAR period
ENCODING 46
SWIDTH 250 0
DWIDTH 3 0
BBX 2 2 0 0
BITMAP
C0
C0
ENDCHAR

STARTCHAR slash
ENCODING 47
SWIDTH 278 0
DWIDTH 3 0
BBX 6 7 -2 0
BITMAP
0C
18
18
30
60
60
C0
ENDCHAR

STARTCHAR zero
ENCODING 48
SWIDTH 500 0
DWIDTH 5 0
BBX 6 7 -1 0
BITMAP
38
6C
6C
CC
D8
D8
70
ENDCHAR

STARTCHAR one
ENCODING 49
SWIDTH 500 0
DWIDTH 5 0
BBX 4 7 0 0
BITMAP
70
30
30
60
60
60
F0
ENDCHAR

STARTCHAR two
ENCODING 50
SWIDTH 500 0
DWIDTH 5 0
BBX 5 7 -1 0
BITMAP
30
58
18
30
60
C8
F0
ENDCHAR

STARTCHAR three
ENCODING 51
SWIDTH 500 0
DWIDTH 5 0
BBX 5 7 -1 0
BITMAP
30
58
18
70
30
30
E0
ENDCHAR

STARTCHAR four
ENCODING 52
SWIDTH 500 0
DWIDTH 5 0
BBX 5 7 -1 0
BITMAP
08
18
38
58
F8
30
30
ENDCHAR

STARTCHAR five
ENCODING 53
SWIDTH 500 0
DWIDTH 5 0
BBX 5 7 0 0
BITMAP
38
20
70
30
30
A0
C0
ENDCHAR

STARTCHAR six
ENCODING 54
SWIDTH 500 0
DWIDTH 5 0
BBX 6 7 -1 0
BITMAP
1C
30
70
D8
D8
D8
70
ENDCHAR

STARTCHAR seven
ENCODING 55
SWIDTH 500 0
DWIDTH 5 0
BBX 5 7 0 0
BITMAP
F8
98
30
30
60
60
C0
ENDCHAR

STARTCHAR eight
ENCODING 56
SWIDTH 500 0
DWIDTH 5 0
BBX 6 7 -1 0
BITMAP
38
6C
6C
30
D8
D8
70
ENDCHAR

STARTCHAR nine
ENCODING 57
SWIDTH 500 0
DWIDTH 5 0
BBX 6 7 -1 0
BITMAP
38
6C
6C
6C
38
30
E0
ENDCHAR

STARTCHAR colon
ENCODING 58
SWIDTH 333 0
DWIDTH 3 0
BBX 3 5 0 0
BITMAP
60
60
00
C0
C0
ENDCHAR

STARTCHAR semicolon
ENCODING 59
SWIDTH 333 0
DWIDTH 3 0
BBX 3 7 0 -2
BITMAP
60
60
00
40
C0
40
80
ENDCHAR

STARTCHAR less
ENCODING 60
SWIDTH 570 0
DWIDTH 6 0
BBX 6 5 0 0
BITMAP
0C
30
C0
30
0C
ENDCHAR

STARTCHAR equal
ENCODING 61
SWIDTH 570 0
DWIDTH 6 0
BBX 6 3 0 1
BITMAP
FC
00
FC
ENDCHAR

STARTCHAR greater
ENCODING 62
SWIDTH 570 0
DWIDTH 6 0
BBX 6 5 0 0
BITMAP
C0
30
0C
30
C0
ENDCHAR

STARTCHAR question
ENCODING 63
SWIDTH 500 0
DWIDTH 5 0
BBX 4 7 1 0
BITMAP
60
30
30
60
00
C0
C0
ENDCHAR

STARTCHAR at
ENCODING 64
SWIDTH 832 0
DWIDTH 9 0
BBX 9 9 0 -2
BITMAP
1E00
6100
4E80
9680
A680
AD00
B680
4100
3E00
ENDCHAR

STARTCHAR A
ENCODING 65
SWIDTH 667 0
DWIDTH 7 0
BBX 7 7 -1 0
BITMAP
02
06
0E
16
3C
4C
DE
ENDCHAR

STARTCHAR B
ENCODING 66
SWIDTH 667 0
DWIDTH 7 0
BBX 7 7 -1 0
BITMAP
7C
36
36
78
6C
6C
F8
ENDCHAR

STARTCHAR C
ENCODING 67
SWIDTH 667 0
DWIDTH 7 0
BBX 6 7 0 0
BITMAP
3C
64
C0
C0
C0
C8
70
ENDCHAR

STARTCHAR D
ENCODING 68
SWIDTH 722 0
DWIDTH 7 0
BBX 7 7 -1 0
BITMAP
7C
36
36
66
66
6C
F8
ENDCHAR

STARTCHAR E
ENCODING 69
SWIDTH 667 0
DWIDTH 7 0
BBX 7 7 -1 0
BITMAP
7E
32
30
78
60
64
F8
ENDCHAR

STARTCHAR F
ENCODING 70
SWIDTH 667 0
DWIDTH 7 0
BBX 7 7 -1 0
BITMAP
7E
32
30
78
60
60
F0
ENDCHAR

STARTCHAR G
ENCODING 71
SWIDTH 722 0
DWIDTH 7 0
BBX 7 7 0 0
BITMAP
3C
64
C0
DE
CC
CC
78
ENDCHAR

STARTCHAR H
ENCODING 72
SWIDTH 778 0
DWIDTH 8 0
BBX 9 7 -1 0
BITMAP
7B80
3300
3300
7E00
6600
6600
EF00
ENDCHAR

STARTCHAR I
ENCODING 73
SWIDTH 389 0
DWIDTH 4 0
BBX 5 7 -1 0
BITMAP
78
30
30
60
60
60
F0
ENDCHAR

STARTCHAR J
ENCODING 74
SWIDTH 500 0
DWIDTH 5 0
BBX 6 7 -1 0
BITMAP
3C
18
18
30
30
B0
60
ENDCHAR

STARTCHAR K
ENCODING 75
SWIDTH 667 0
DWIDTH 7 0
BBX 8 7 -1 0
BITMAP
7B
32
34
78
6C
6C
EE
ENDCHAR

STARTCHAR L
ENCODING 76
SWIDTH 611 0
DWIDTH 6 0
BBX 6 7 -1 0
BITMAP
78
30
30
60
60
64
F8
ENDCHAR

STARTCHAR M
ENCODING 77
SWIDTH 889 0
DWIDTH 9 0
BBX 10 7 -1 0
BITMAP
71C0
3180
3380
5F00
5B00
5B00
D380
ENDCHAR

STARTCHAR N
ENCODING 78
SWIDTH 722 0
DWIDTH 7 0
BBX 8 7 -1 0
BITMAP
77
32
32
5A
4C
4C
E4
ENDCHAR

STARTCHAR O
ENCODING 79
SWIDTH 722 0
DWIDTH 7 0
BBX 6 7 0 0
BITMAP
38
6C
CC
CC
CC
D8
70
ENDCHAR

STARTCHAR P
ENCODING 80
SWIDTH 611 0
DWIDTH 6 0
BBX 7 7 -1 0
BITMAP
7C
36
36
7C
60
60
F0
ENDCHAR

STARTCHAR Q
ENCODING 81
SWIDTH 722 0
DWIDTH 7 0
BBX 6 9 0 -2
BITMAP
38
6C
CC
CC
CC
D8
70
44
F8
ENDCHAR

STARTCHAR R
ENCODING 82
SWIDTH 667 0
DWIDTH 7 0
BBX 7 7 -1 0
BITMAP
7C
36
36
78
6C
6C
E6
ENDCHAR

STARTCHAR S
ENCODING 83
SWIDTH 556 0
DWIDTH 6 0
BBX 6 7 -1 0
BITMAP
34
6C
64
30
98
D8
B0
ENDCHAR

STARTCHAR T
ENCODING 84
SWIDTH 611 0
DWIDTH 6 0
BBX 6 7 0 0
BITMAP
FC
B4
30
60
60
60
F0
ENDCHAR

STARTCHAR U
ENCODING 85
SWIDTH 722 0
DWIDTH 7 0
BBX 7 7 0 0
BITMAP
F6
64
64
C8
C8
C8
70
ENDCHAR

STARTCHAR V
ENCODING 86
SWIDTH 667 0
DWIDTH 7 0
BBX 7 7 0 0
BITMAP
F6
64
68
68
70
60
40
ENDCHAR

STARTCHAR W
ENCODING 87
SWIDTH 889 0
DWIDTH 9 0
BBX 9 7 0 0
BITMAP
ED80
6D00
6D00
7E00
6C00
6C00
4800
ENDCHAR

STARTCHAR X
ENCODING 88
SWIDTH 667 0
DWIDTH 7 0
BBX 8 7 -1 0
BITMAP
77
32
34
18
2C
4C
EE
ENDCHAR

STARTCHAR Y
ENCODING 89
SWIDTH 611 0
DWIDTH 6 0
BBX 6 7 0 0
BITMAP
EC
68
68
30
60
60
F0
ENDCHAR

STARTCHAR Z
ENCODING 90
SWIDTH 611 0
DWIDTH 6 0
BBX 6 7 0 0
BITMAP
3C
4C
18
30
60
C8
F0
ENDCHAR

STARTCHAR bracketleft
ENCODING 91
SWIDTH 333 0
DWIDTH 3 0
BBX 5 9 -1 -2
BITMAP
38
30
30
30
60
60
60
C0
E0
ENDCHAR

STARTCHAR backslash
ENCODING 92
SWIDTH 278 0
DWIDTH 3 0
BBX 6 7 -2 0
BITMAP
C0
60
30
30
18
0C
0C
ENDCHAR

STARTCHAR bracketright
ENCODING 93
SWIDTH 333 0
DWIDTH 3 0
BBX 5 9 -1 -2
BITMAP
38
18
30
30
30
60
60
60
E0
ENDCHAR

STARTCHAR asciicircum
ENCODING 94
SWIDTH 570 0
DWIDTH 6 0
BBX 5 4 0 3
BITMAP
20
50
50
88
ENDCHAR

STARTCHAR underscore
ENCODING 95
SWIDTH 500 0
DWIDTH 5 0
BBX 5 1 0 -2
BITMAP
F8
ENDCHAR

STARTCHAR quoteleft
ENCODING 96
SWIDTH 333 0
DWIDTH 3 0
BBX 2 4 0 3
BITMAP
40
80
C0
80
ENDCHAR

STARTCHAR a
ENCODING 97
SWIDTH 500 0
DWIDTH 5 0
BBX 5 5 0 0
BITMAP
38
58
98
B0
E8
ENDCHAR

STARTCHAR b
ENCODING 98
SWIDTH 500 0
DWIDTH 5 0
BBX 5 7 0 0
BITMAP
30
60
78
68
C8
D0
E0
ENDCHAR

STARTCHAR c
ENCODING 99
SWIDTH 444 0
DWIDTH 4 0
BBX 4 5 0 0
BITMAP
30
50
C0
C0
60
ENDCHAR

STARTCHAR d
ENCODING 100
SWIDTH 500 0
DWIDTH 5 0
BBX 6 7 0 0
BITMAP
1C
0C
38
58
98
B0
D8
ENDCHAR

STARTCHAR e
ENCODING 101
SWIDTH 444 0
DWIDTH 4 0
BBX 4 5 0 0
BITMAP
30
50
E0
C0
60
ENDCHAR

STARTCHAR f
ENCODING 102
SWIDTH 333 0
DWIDTH 3 0
BBX 6 9 -1 -2
BITMAP
1C
30
78
30
30
60
60
60
C0
ENDCHAR

STARTCHAR g
ENCODING 103
SWIDTH 500 0
DWIDTH 5 0
BBX 7 7 -1 -2
BITMAP
1E
34
18
30
78
D8
70
ENDCHAR

STARTCHAR h
ENCODING 104
SWIDTH 556 0
DWIDTH 6 0
BBX 6 7 0 0
BITMAP
70
30
6C
7C
6C
D8
DC
ENDCHAR

STARTCHAR i
ENCODING 105
SWIDTH 278 0
DWIDTH 3 0
BBX 3 7 0 0
BITMAP
60
00
E0
60
60
C0
E0
ENDCHAR

STARTCHAR j
ENCODING 106
SWIDTH 278 0
DWIDTH 3 0
BBX 4 9 -1 -2
BITMAP
30
00
70
30
30
60
60
60
C0
ENDCHAR

STARTCHAR k
ENCODING 107
SWIDTH 500 0
DWIDTH 5 0
BBX 6 7 0 0
BITMAP
70
30
6C
68
70
D8
D8
ENDCHAR

STARTCHAR l
ENCODING 108
SWIDTH 278 0
DWIDTH 3 0
BBX 4 7 0 0
BITMAP
70
30
60
60
60
C0
E0
ENDCHAR

STARTCHAR m
ENCODING 109
SWIDTH 778 0
DWIDTH 8 0
BBX 8 5 0 0
BITMAP
EB
7F
6B
D6
D7
ENDCHAR

STARTCHAR n
ENCODING 110
SWIDTH 556 0
DWIDTH 6 0
BBX 6 5 0 0
BITMAP
EC
7C
6C
D8
DC
ENDCHAR

STARTCHAR o
ENCODING 111
SWIDTH 500 0
DWIDTH 5 0
BBX 5 5 0 0
BITMAP
30
58
D8
D0
60
ENDCHAR

STARTCHAR p
ENCODING 112
SWIDTH 500 0
DWIDTH 5 0
BBX 6 7 -1 -2
BITMAP
6C
34
34
68
70
60
F0
ENDCHAR

STARTCHAR q
ENCODING 113
SWIDTH 500 0
DWIDTH 5 0
BBX 5 7 0 -2
BITMAP
28
58
98
B0
F0
30
78
ENDCHAR

STARTCHAR r
ENCODING 114
SWIDTH 389 0
DWIDTH 4 0
BBX 5 5 0 0
BITMAP
E8
78
60
C0
C0
ENDCHAR

STARTCHAR s
ENCODING 115
SWIDTH 389 0
DWIDTH 4 0
BBX 5 5 -1 0
BITMAP
38
60
70
30
E0
ENDCHAR

STARTCHAR t
ENCODING 116
SWIDTH 278 0
DWIDTH 3 0
BBX 4 7 0 0
BITMAP
20
60
F0
60
60
C0
E0
ENDCHAR

STARTCHAR u
ENCODING 117
SWIDTH 556 0
DWIDTH 6 0
BBX 6 5 0 0
BITMAP
EC
6C
D8
F8
DC
ENDCHAR

STARTCHAR v
ENCODING 118
SWIDTH 444 0
DWIDTH 4 0
BBX 5 5 -1 0
BITMAP
E8
68
68
30
20
ENDCHAR

STARTCHAR w
ENCODING 119
SWIDTH 667 0
DWIDTH 7 0
BBX 8 5 -1 0
BITMAP
ED
6D
6D
36
24
ENDCHAR

STARTCHAR x
ENCODING 120
SWIDTH 500 0
DWIDTH 5 0
BBX 6 5 -1 0
BITMAP
6C
68
30
58
D8
ENDCHAR

STARTCHAR y
ENCODING 121
SWIDTH 444 0
DWIDTH 4 0
BBX 5 7 -1 -2
BITMAP
E8
68
68
30
30
20
C0
ENDCHAR

STARTCHAR z
ENCODING 122
SWIDTH 389 0
DWIDTH 4 0
BBX 4 6 0 -1
BITMAP
70
70
A0
40
D0
60
ENDCHAR

STARTCHAR braceleft
ENCODING 123
SWIDTH 348 0
DWIDTH 3 0
BBX 6 9 -2 -2
BITMAP
1C
30
30
30
C0
60
60
60
38
ENDCHAR

STARTCHAR bar
ENCODING 124
SWIDTH 220 0
DWIDTH 2 0
BBX 1 9 0 -2
BITMAP
80
80
80
80
80
80
80
80
80
ENDCHAR

STARTCHAR braceright
ENCODING 125
SWIDTH 348 0
DWIDTH 3 0
BBX 6 9 -2 -2
BITMAP
70
18
18
18
0C
30
30
30
E0
ENDCHAR

STARTCHAR asciitilde
ENCODING 126
SWIDTH 570 0
DWIDTH 6 0
BBX 5 2 0 2
BITMAP
E8
B8
ENDCHAR

STARTCHAR space
ENCODING 160
SWIDTH 250 0
DWIDTH 3 0
BBX 0 0 0 0
BITMAP
ENDCHAR

STARTCHAR Aogonek
ENCODING 161
SWIDTH 667 0
DWIDTH 7 0
BBX 7 9 0 -2
BITMAP
02
06
0E
16
3C
4C
DE
08
0C
ENDCHAR

STARTCHAR afii240
ENCODING 162
SWIDTH 500 0
DWIDTH 5 0
BBX 5 5 0 0
BITMAP
E8
68
70
D8
D8
ENDCHAR

STARTCHAR Rcommaaccent
ENCODING 163
SWIDTH 667 0
DWIDTH 7 0
BBX 7 10 -1 -3
BITMAP
7C
36
36
78
6C
6C
E6
00
10
20
ENDCHAR

STARTCHAR currency
ENCODING 164
SWIDTH 500 0
DWIDTH 5 0
BBX 5 5 0 0
BITMAP
A8
50
88
50
A8
ENDCHAR

STARTCHAR Itilde
ENCODING 165
SWIDTH 389 0
DWIDTH 4 0
BBX 6 10 -1 0
BITMAP
14
28
00
78
30
30
60
60
60
F0
ENDCHAR

STARTCHAR Lcommaaccent
ENCODING 166
SWIDTH 611 0
DWIDTH 6 0
BBX 6 10 -1 -3
BITMAP
78
30
30
60
60
64
F8
00
20
40
ENDCHAR

STARTCHAR section
ENCODING 167
SWIDTH 500 0
DWIDTH 5 0
BBX 6 9 -1 -2
BITMAP
38
6C
70
D8
CC
6C
38
D8
70
ENDCHAR

STARTCHAR hungarumlaut
ENCODING 168
SWIDTH 333 0
DWIDTH 3 0
BBX 4 2 0 5
BITMAP
50
A0
ENDCHAR

STARTCHAR Scaron
ENCODING 169
SWIDTH 556 0
DWIDTH 6 0
BBX 6 10 -1 0
BITMAP
24
18
00
34
6C
64
30
98
D8
B0
ENDCHAR

STARTCHAR Emacron
ENCODING 170
SWIDTH 667 0
DWIDTH 7 0
BBX 7 9 -1 0
BITMAP
1C
00
7E
32
30
78
60
64
F8
ENDCHAR

STARTCHAR Gcommaaccent
ENCODING 171
SWIDTH 722 0
DWIDTH 7 0
BBX 7 10 0 -3
BITMAP
3C
64
C0
DE
CC
CC
78
00
20
40
ENDCHAR

STARTCHAR afii237
ENCODING 172
SWIDTH 611 0
DWIDTH 6 0
BBX 6 7 0 0
BITMAP
FC
B4
30
F8
60
60
F0
ENDCHAR

STARTCHAR hyphen
ENCODING 173
SWIDTH 333 0
DWIDTH 3 0
BBX 3 1 0 3
BITMAP
E0
ENDCHAR

STARTCHAR Zcaron
ENCODING 174
SWIDTH 611 0
DWIDTH 6 0
BBX 7 10 0 0
BITMAP
12
0C
00
3C
4C
18
30
60
C8
F0
ENDCHAR

STARTCHAR macron
ENCODING 175
SWIDTH 333 0
DWIDTH 3 0
BBX 3 1 0 5
BITMAP
E0
ENDCHAR

STARTCHAR degree
ENCODING 176
SWIDTH 400 0
DWIDTH 4 0
BBX 4 4 0 3
BITMAP
60
90
90
60
ENDCHAR

STARTCHAR aogonek
ENCODING 177
SWIDTH 500 0
DWIDTH 5 0
BBX 5 7 0 -2
BITMAP
38
58
98
B0
E8
10
18
ENDCHAR

STARTCHAR ogonek
ENCODING 178
SWIDTH 333 0
DWIDTH 3 0
BBX 2 2 0 -2
BITMAP
80
C0
ENDCHAR

STARTCHAR rcommaaccent
ENCODING 179
SWIDTH 389 0
DWIDTH 4 0
BBX 5 8 0 -3
BITMAP
E8
78
60
C0
C0
00
40
80
ENDCHAR

STARTCHAR acute
ENCODING 180
SWIDTH 333 0
DWIDTH 3 0
BBX 2 2 1 5
BITMAP
40
80
ENDCHAR

STARTCHAR itilde
ENCODING 181
SWIDTH 278 0
DWIDTH 3 0
BBX 5 8 0 0
BITMAP
28
50
00
E0
60
60
C0
E0
ENDCHAR

STARTCHAR lcommaaccent
ENCODING 182
SWIDTH 278 0
DWIDTH 3 0
BBX 4 10 0 -3
BITMAP
70
30
60
60
60
C0
E0
00
40
80
ENDCHAR

STARTCHAR caron
ENCODING 183
SWIDTH 333 0
DWIDTH 3 0
BBX 4 2 0 5
BITMAP
90
60
ENDCHAR

STARTCHAR commaaccent
ENCODING 184
SWIDTH 333 0
DWIDTH 3 0
BBX 2 2 0 -2
BITMAP
40
80
ENDCHAR

STARTCHAR scaron
ENCODING 185
SWIDTH 389 0
DWIDTH 4 0
BBX 6 8 -1 0
BITMAP
24
18
00
38
60
70
30
E0
ENDCHAR

STARTCHAR emacron
ENCODING 186
SWIDTH 444 0
DWIDTH 4 0
BBX 5 7 0 0
BITMAP
38
00
30
50
E0
C0
60
ENDCHAR

STARTCHAR gcommaaccent
ENCODING 187
SWIDTH 500 0
DWIDTH 5 0
BBX 7 10 -1 -2
BITMAP
24
48
00
1E
34
18
70
78
D8
70
ENDCHAR

STARTCHAR afii253
ENCODING 188
SWIDTH 278 0
DWIDTH 3 0
BBX 5 7 -1 0
BITMAP
10
30
78
30
F8
60
70
ENDCHAR

STARTCHAR afii238
ENCODING 189
SWIDTH 775 0
DWIDTH 8 0
BBX 8 7 -1 0
BITMAP
76
3B
33
63
66
66
EC
ENDCHAR

STARTCHAR zcaron
ENCODING 190
SWIDTH 389 0
DWIDTH 4 0
BBX 5 9 0 -1
BITMAP
48
30
00
70
70
A0
40
D0
60
ENDCHAR

STARTCHAR afii254
ENCODING 191
SWIDTH 477 0
DWIDTH 5 0
BBX 6 7 0 -2
BITMAP
E8
7C
6C
D8
D8
18
30
ENDCHAR

STARTCHAR Amacron
ENCODING 192
SWIDTH 667 0
DWIDTH 7 0
BBX 8 9 0 0
BITMAP
07
00
02
06
0E
16
3C
4C
DE
ENDCHAR

STARTCHAR Aacute
ENCODING 193
SWIDTH 667 0
DWIDTH 7 0
BBX 8 10 0 0
BITMAP
01
02
00
02
06
0E
16
3C
4C
DE
ENDCHAR

STARTCHAR Acircumflex
ENCODING 194
SWIDTH 667 0
DWIDTH 7 0
BBX 9 10 0 0
BITMAP
0300
0480
0000
0200
0600
0E00
1600
3C00
4C00
DE00
ENDCHAR

STARTCHAR Atilde
ENCODING 195
SWIDTH 667 0
DWIDTH 7 0
BBX 9 10 0 0
BITMAP
0280
0500
0000
0200
0600
0E00
1600
3C00
4C00
DE00
ENDCHAR

STARTCHAR Adieresis
ENCODING 196
SWIDTH 667 0
DWIDTH 7 0
BBX 9 9 0 0
BITMAP
0280
0000
0200
0600
0E00
1600
3C00
4C00
DE00
ENDCHAR

STARTCHAR Aring
ENCODING 197
SWIDTH 667 0
DWIDTH 7 0
BBX 8 9 0 0
BITMAP
02
05
02
06
0E
16
3C
4C
DE
ENDCHAR

STARTCHAR AE
ENCODING 198
SWIDTH 944 0
DWIDTH 9 0
BBX 10 7 0 0
BITMAP
07C0
0E40
1600
2F00
3C00
4C80
DF00
ENDCHAR

STARTCHAR Iogonek
ENCODING 199
SWIDTH 389 0
DWIDTH 4 0
BBX 5 9 -1 -2
BITMAP
78
30
30
60
60
60
F0
40
60
ENDCHAR

STARTCHAR Ccaron
ENCODING 200
SWIDTH 667 0
DWIDTH 7 0
BBX 7 10 0 0
BITMAP
12
0C
00
3C
64
C0
C0
C0
C8
70
ENDCHAR

STARTCHAR Eacute
ENCODING 201
SWIDTH 667 0
DWIDTH 7 0
BBX 7 10 -1 0
BITMAP
04
08
00
7E
32
30
78
60
64
F8
ENDCHAR

STARTCHAR Eogonek
ENCODING 202
SWIDTH 667 0
DWIDTH 7 0
BBX 7 9 -1 -2
BITMAP
7E
32
30
78
60
64
F8
20
30
ENDCHAR

STARTCHAR Edieresis
ENCODING 203
SWIDTH 667 0
DWIDTH 7 0
BBX 7 9 -1 0
BITMAP
14
00
7E
32
30
78
60
64
F8
ENDCHAR

STARTCHAR Edotaccent
ENCODING 204
SWIDTH 667 0
DWIDTH 7 0
BBX 7 10 -1 0
BITMAP
0C
0C
00
7E
32
30
78
60
64
F8
ENDCHAR

STARTCHAR Iacute
ENCODING 205
SWIDTH 389 0
DWIDTH 4 0
BBX 5 10 -1 0
BITMAP
08
10
00
78
30
30
60
60
60
F0
ENDCHAR

STARTCHAR Icircumflex
ENCODING 206
SWIDTH 389 0
DWIDTH 4 0
BBX 6 10 -1 0
BITMAP
18
24
00
78
30
30
60
60
60
F0
ENDCHAR

STARTCHAR Imacron
ENCODING 207
SWIDTH 389 0
DWIDTH 4 0
BBX 5 9 -1 0
BITMAP
38
00
78
30
30
60
60
60
F0
ENDCHAR

STARTCHAR Eth
ENCODING 208
SWIDTH 722 0
DWIDTH 7 0
BBX 7 7 -1 0
BITMAP
7C
36
36
F6
66
6C
F8
ENDCHAR

STARTCHAR Ncommaaccent
ENCODING 209
SWIDTH 722 0
DWIDTH 7 0
BBX 8 10 -1 -3
BITMAP
77
32
32
5A
4C
4C
E4
00
10
20
ENDCHAR

STARTCHAR Omacron
ENCODING 210
SWIDTH 722 0
DWIDTH 7 0
BBX 6 9 0 0
BITMAP
1C
00
38
6C
CC
CC
CC
D8
70
ENDCHAR

STARTCHAR Kcommaaccent
ENCODING 211
SWIDTH 667 0
DWIDTH 7 0
BBX 8 10 -1 -3
BITMAP
7B
32
34
78
6C
6C
EE
00
10
20
ENDCHAR

STARTCHAR Ocircumflex
ENCODING 212
SWIDTH 722 0
DWIDTH 7 0
BBX 6 10 0 0
BITMAP
18
24
00
38
6C
CC
CC
CC
D8
70
ENDCHAR

STARTCHAR Otilde
ENCODING 213
SWIDTH 722 0
DWIDTH 7 0
BBX 7 10 0 0
BITMAP
0A
14
00
38
6C
CC
CC
CC
D8
70
ENDCHAR

STARTCHAR Odieresis
ENCODING 214
SWIDTH 722 0
DWIDTH 7 0
BBX 6 9 0 0
BITMAP
14
00
38
6C
CC
CC
CC
D8
70
ENDCHAR

STARTCHAR multiply
ENCODING 215
SWIDTH 570 0
DWIDTH 6 0
BBX 5 5 0 0
BITMAP
88
50
20
50
88
ENDCHAR

STARTCHAR Oslash
ENCODING 216
SWIDTH 722 0
DWIDTH 7 0
BBX 8 7 -1 0
BITMAP
1D
36
6E
6E
76
6C
B8
ENDCHAR

STARTCHAR Uogonek
ENCODING 217
SWIDTH 722 0
DWIDTH 7 0
BBX 7 9 0 -2
BITMAP
F6
64
64
C8
C8
C8
70
20
30
ENDCHAR

STARTCHAR Uacute
ENCODING 218
SWIDTH 722 0
DWIDTH 7 0
BBX 7 10 0 0
BITMAP
04
08
00
F6
64
64
C8
C8
C8
70
ENDCHAR

STARTCHAR Ucircumflex
ENCODING 219
SWIDTH 722 0
DWIDTH 7 0
BBX 7 10 0 0
BITMAP
18
24
00
F6
64
64
C8
C8
C8
70
ENDCHAR

STARTCHAR Udieresis
ENCODING 220
SWIDTH 722 0
DWIDTH 7 0
BBX 7 9 0 0
BITMAP
14
00
F6
64
64
C8
C8
C8
70
ENDCHAR

STARTCHAR Utilde
ENCODING 221
SWIDTH 722 0
DWIDTH 7 0
BBX 7 10 0 0
BITMAP
0A
14
00
F6
64
64
C8
C8
C8
70
ENDCHAR

STARTCHAR Umacron
ENCODING 222
SWIDTH 722 0
DWIDTH 7 0
BBX 7 9 0 0
BITMAP
1C
00
F6
64
64
C8
C8
C8
70
ENDCHAR

STARTCHAR germandbls
ENCODING 223
SWIDTH 500 0
DWIDTH 5 0
BBX 6 9 -1 -2
BITMAP
18
34
34
38
34
64
68
60
C0
ENDCHAR

STARTCHAR amacron
ENCODING 224
SWIDTH 500 0
DWIDTH 5 0
BBX 5 7 0 0
BITMAP
38
00
38
58
98
B0
E8
ENDCHAR

STARTCHAR aacute
ENCODING 225
SWIDTH 500 0
DWIDTH 5 0
BBX 5 8 0 0
BITMAP
08
10
00
38
58
98
B0
E8
ENDCHAR

STARTCHAR acircumflex
ENCODING 226
SWIDTH 500 0
DWIDTH 5 0
BBX 6 8 0 0
BITMAP
18
24
00
38
58
98
B0
E8
ENDCHAR

STARTCHAR atilde
ENCODING 227
SWIDTH 500 0
DWIDTH 5 0
BBX 6 8 0 0
BITMAP
14
28
00
38
58
98
B0
E8
ENDCHAR

STARTCHAR adieresis
ENCODING 228
SWIDTH 500 0
DWIDTH 5 0
BBX 5 7 0 0
BITMAP
28
00
38
58
98
B0
E8
ENDCHAR

STARTCHAR aring
ENCODING 229
SWIDTH 500 0
DWIDTH 5 0
BBX 5 9 0 0
BITMAP
10
28
10
00
38
58
98
B0
E8
ENDCHAR

STARTCHAR ae
ENCODING 230
SWIDTH 722 0
DWIDTH 7 0
BBX 7 5 0 0
BITMAP
3E
5A
9C
B0
EC
ENDCHAR

STARTCHAR iogonek
ENCODING 231
SWIDTH 278 0
DWIDTH 3 0
BBX 3 7 0 -2
BITMAP
E0
60
60
C0
E0
80
C0
ENDCHAR

STARTCHAR ccaron
ENCODING 232
SWIDTH 444 0
DWIDTH 4 0
BBX 5 8 0 0
BITMAP
48
30
00
30
50
C0
C0
60
ENDCHAR

STARTCHAR eacute
ENCODING 233
SWIDTH 444 0
DWIDTH 4 0
BBX 4 8 0 0
BITMAP
10
20
00
30
50
E0
C0
60
ENDCHAR

STARTCHAR eogonek
ENCODING 234
SWIDTH 444 0
DWIDTH 4 0
BBX 4 7 0 -2
BITMAP
30
50
E0
C0
60
40
60
ENDCHAR

STARTCHAR edieresis
ENCODING 235
SWIDTH 444 0
DWIDTH 4 0
BBX 5 7 0 0
BITMAP
28
00
30
50
E0
C0
60
ENDCHAR

STARTCHAR edotaccent
ENCODING 236
SWIDTH 444 0
DWIDTH 4 0
BBX 5 8 0 0
BITMAP
18
18
00
30
50
E0
C0
60
ENDCHAR

STARTCHAR iacute
ENCODING 237
SWIDTH 278 0
DWIDTH 3 0
BBX 4 8 0 0
BITMAP
10
20
00
E0
60
60
C0
E0
ENDCHAR

STARTCHAR icircumflex
ENCODING 238
SWIDTH 278 0
DWIDTH 3 0
BBX 5 8 0 0
BITMAP
30
48
00
E0
60
60
C0
E0
ENDCHAR

STARTCHAR imacron
ENCODING 239
SWIDTH 278 0
DWIDTH 3 0
BBX 4 7 0 0
BITMAP
70
00
E0
60
60
C0
E0
ENDCHAR

STARTCHAR dcroat
ENCODING 240
SWIDTH 500 0
DWIDTH 5 0
BBX 7 7 0 0
BITMAP
1E
0C
38
58
98
B0
D8
ENDCHAR

STARTCHAR ncommaaccent
ENCODING 241
SWIDTH 556 0
DWIDTH 6 0
BBX 6 8 0 -3
BITMAP
EC
7C
6C
D8
DC
00
20
40
ENDCHAR

STARTCHAR omacron
ENCODING 242
SWIDTH 500 0
DWIDTH 5 0
BBX 5 7 0 0
BITMAP
38
00
30
58
D8
D0
60
ENDCHAR

STARTCHAR kcommaaccent
ENCODING 243
SWIDTH 500 0
DWIDTH 5 0
BBX 6 10 0 -3
BITMAP
70
30
6C
68
70
D8
D8
00
20
40
ENDCHAR

STARTCHAR ocircumflex
ENCODING 244
SWIDTH 500 0
DWIDTH 5 0
BBX 5 8 0 0
BITMAP
30
48
00
30
58
D8
D0
60
ENDCHAR

STARTCHAR otilde
ENCODING 245
SWIDTH 500 0
DWIDTH 5 0
BBX 5 8 0 0
BITMAP
28
50
00
30
58
D8
D0
60
ENDCHAR

STARTCHAR odieresis
ENCODING 246
SWIDTH 500 0
DWIDTH 5 0
BBX 5 7 0 0
BITMAP
28
00
30
58
D8
D0
60
ENDCHAR

STARTCHAR divide
ENCODING 247
SWIDTH 570 0
DWIDTH 6 0
BBX 5 5 0 0
BITMAP
20
00
F8
00
20
ENDCHAR

STARTCHAR oslash
ENCODING 248
SWIDTH 500 0
DWIDTH 5 0
BBX 7 5 -1 0
BITMAP
1A
2C
7C
68
B0
ENDCHAR

STARTCHAR uogonek
ENCODING 249
SWIDTH 556 0
DWIDTH 6 0
BBX 6 7 0 -2
BITMAP
EC
6C
D8
F8
DC
10
18
ENDCHAR

STARTCHAR uacute
ENCODING 250
SWIDTH 556 0
DWIDTH 6 0
BBX 6 8 0 0
BITMAP
08
10
00
EC
6C
D8
FC
D8
ENDCHAR

STARTCHAR ucircumflex
ENCODING 251
SWIDTH 556 0
DWIDTH 6 0
BBX 6 8 0 0
BITMAP
18
24
00
EC
6C
D8
F8
DC
ENDCHAR

STARTCHAR udieresis
ENCODING 252
SWIDTH 556 0
DWIDTH 6 0
BBX 6 8 0 0
BITMAP
14
28
00
EC
6C
D8
F8
DC
ENDCHAR

STARTCHAR utilde
ENCODING 253
SWIDTH 556 0
DWIDTH 6 0
BBX 6 8 0 0
BITMAP
14
28
00
EC
6C
D8
F8
DC
ENDCHAR

STARTCHAR umacron
ENCODING 254
SWIDTH 556 0
DWIDTH 6 0
BBX 6 7 0 0
BITMAP
38
00
EC
6C
D8
F8
DC
ENDCHAR

STARTCHAR dotaccent
ENCODING 255
SWIDTH 333 0
DWIDTH 3 0
BBX 2 2 0 6
BITMAP
C0
C0
ENDCHAR
ENDFONT
